<svg xmlns="http://www.w3.org/2000/svg" viewBox="0 0 160 20" width="160" height="20" role="img" aria-label="Paul Rich logo">
  <path d="M13.59 5.78c0 3.84-2.52 5.69-6.7 5.69h-4v8.13H0V.34h7c4.13 0 6.59 1.88 6.59 5.44Zm-2.91.08c0-2.66-1.4-4.2-4.07-4.2H2.89v8.41h3.89c2.61.08 3.92-1.57 3.92-4.18ZM29.7 19.63l-2.11-5.61h-8.84l-2.19 5.61h-1.62L22.36.34h3l7.34 19.29ZM23.22 2.27l-4.05 10.51h8ZM37.44.34h2.92v12.84c0 3.48 1.65 5.36 4.93 5.36s5.13-2 5.13-5.92V.34h1.85v12.28c0 4.74-2.81 7.38-7.37 7.38s-7.46-2.67-7.46-7.38ZM59.27 19.63V.34h2.81v17.89h9.8v1.4ZM90.47 10.88H87.3v8.75h-2.8V.34h7.7c3.7 0 6 1.77 6 5.27 0 2.89-1.77 4.57-4.65 5.1l5.91 8.92h-3.33ZM87.3 9.54h3.89c2.81 0 4.21-1.29 4.21-3.9s-1.21-3.93-3.93-3.93H87.3ZM105.43 19.63V.34h2.89v19.29ZM123.45 0a8.5 8.5 0 0 1 8.52 6.17l-2.44.59a5.79 5.79 0 0 0-5.8-5.35c-4.59 0-6.67 3.92-6.67 8.63a11 11 0 0 0 1.65 6.2 5.6 5.6 0 0 0 5 2.38c3.36 0 5.44-2.13 6-5.47l2.38.54a8.41 8.41 0 0 1-8.69 6.28c-5.6 0-9.33-4.1-9.33-10S117.82 0 123.45 0ZM149.7.34h2.89v19.29h-2.89v-9.45H140v9.45h-2.91V.34H140v8.44h9.7Z" fill="#d4af37"/>
</svg>